<?xml version="1.0" encoding="UTF-8"?>
<svg version="1.1" xmlns="http://www.w3.org/2000/svg" width="226" height="294">
<path d="M0 0 C0.99 0.99 0.99 0.99 2 2 C1.75 5.5625 1.75 5.5625 1 9 C0.34 9.33 -0.32 9.66 -1 10 C-1 10.66 -1 11.32 -1 12 C-0.525625 12.43957031 -0.05125 12.87914062 0.4375 13.33203125 C2.39889684 15.42582238 2.50763922 16.88719807 3 19.6875 C4.90062783 26.687124 10.19099693 29.27377674 16 33 C25.61958723 40.07747409 31.56334271 50.86253515 34.609375 62.28515625 C37.11087359 79.67057144 33.7830547 94.26352251 23.22265625 108.375 C13.92390495 119.63238399 1.40760384 125.48020447 -13 126.875 C-27.59568273 127.51656847 -40.56288895 123.65907798 -51.74609375 114.109375 C-62.83720482 103.72947902 -69.21230722 91.42737739 -70.03515625 76.07421875 C-69.86791242 61.44967499 -64.97809251 47.4372633 -54.828125 36.703125 C-51.30385668 33.47052027 -47.78305027 30.79500006 -43.625 28.4375 C-38.527241 25.42334885 -37.64877715 21.06082154 -35.9375 15.625 C-35 13 -35 13 -33 12 C-32.7715451 9.75637427 -32.7715451 9.75637427 -35 7.875 C-35.66 7.25625 -36.32 6.6375 -37 6 C-36.5625 3.125 -36.5625 3.125 -35 0 C-24.81481617 -3.93112358 -10.31098182 -3.25609952 0 0 Z M-29 9 C-29.33 10.32 -29.66 11.64 -30 13 C-29.01 13.66 -28.02 14.32 -27 15 C-26.24297555 21.27248834 -27.30748699 25.84500291 -31 31 C-34.63765872 34.80666498 -38.77663951 37.84577045 -43.0625 40.875 C-50.91965498 46.69454308 -56.62998293 55.26864947 -58.5859375 64.87890625 C-60.55374939 79.71175247 -57.4711253 91.0384996 -48.546875 102.9375 C-42.72060991 109.52883021 -32.71866329 114.86278305 -24 116 C-9.90437915 116.85730084 0.7400532 114.37434977 11.6875 105.3125 C20.69331682 96.91964453 24.93938953 86.33674046 25.4375 74.125 C25.06110879 62.48698392 20.97833902 52.48101305 13 44 C10.03230569 41.52884599 7.01096773 39.26182048 3.83203125 37.0703125 C-2.53240077 32.41769323 -6.14007965 27.67371111 -8 20 C-7.375 16.625 -7.375 16.625 -6 14 C-5.62875 13.21625 -5.2575 12.4325 -4.875 11.625 C-4.58625 11.08875 -4.2975 10.5525 -4 10 C-8.29230123 5.70769877 -23.46788806 8.12650864 -29 9 Z " fill="#F8F8F8" transform="translate(127,152)"/>
<path d="M0 0 C1.4540625 0.0309375 1.4540625 0.0309375 2.9375 0.0625 C3.84700956 6.26004449 4.08576005 12.28013607 4.08276367 18.5390625 C4.08780159 20.06771187 4.08780159 20.06771187 4.09294128 21.62724304 C4.10240227 24.98067461 4.10439229 28.33405593 4.10546875 31.6875 C4.10868588 34.03670268 4.1120503 36.38590516 4.11555481 38.73510742 C4.12153482 43.6575568 4.12339599 48.57998865 4.12280273 53.50244141 C4.12270145 59.77157209 4.13632379 66.04058865 4.15357494 72.30969238 C4.1647657 77.16396589 4.16671974 82.01821248 4.16619301 86.87249756 C4.16736364 89.1814615 4.1717331 91.49042635 4.17952538 93.79937744 C4.21801493 106.3875663 3.96779169 118.61741294 1.9375 131.0625 C0.6175 130.7325 -0.7025 130.4025 -2.0625 130.0625 C-3.74297832 122.29752501 -4.34738406 114.93013413 -4.30541992 106.99755859 C-4.30731827 105.84663727 -4.30921661 104.69571594 -4.31117249 103.50991821 C-4.31484785 99.74351983 -4.30422765 95.97731843 -4.29296875 92.2109375 C-4.29177566 89.58346581 -4.29132406 86.95599368 -4.2915802 84.32852173 C-4.29064807 78.84317613 -4.28201845 73.35788637 -4.26831055 67.87255859 C-4.2525113 61.52679089 -4.24731537 55.18108389 -4.2480461 48.83529794 C-4.24865528 42.71903256 -4.24345584 36.60279015 -4.23525429 30.4865303 C-4.23206384 27.88606511 -4.23009934 25.28559812 -4.22936058 22.68513107 C-4.22720574 19.06788789 -4.21848264 15.45072267 -4.20776367 11.83349609 C-4.20821686 10.75098572 -4.20867004 9.66847534 -4.20913696 8.55316162 C-4.20487198 7.57481354 -4.20060699 6.59646545 -4.19621277 5.58847046 C-4.19453692 4.73350668 -4.19286108 3.8785429 -4.19113445 2.99767113 C-3.97425109 -0.26511271 -3.33516983 0.06806469 0 0 Z " fill="#F9F9F9" transform="translate(110.0625,3.9375)"/>
<path d="M0 0 C3.08607173 1.1572769 3.8445881 2.10955405 5.5 4.9375 C5.85644531 7.83837891 5.85644531 7.83837891 5.828125 11.1640625 C5.82296875 12.3603125 5.8178125 13.5565625 5.8125 14.7890625 C5.791875 16.03429687 5.77125 17.27953125 5.75 18.5625 C5.74484375 19.81546875 5.7396875 21.0684375 5.734375 22.359375 C5.65429258 31.62891484 5.65429258 31.62891484 4.5 33.9375 C5.61375 34.081875 6.7275 34.22625 7.875 34.375 C11.5 34.9375 11.5 34.9375 13.5 35.9375 C14.48850196 38.32637975 14.58403706 39.61068919 13.9375 42.125 C11.79037975 44.83223857 9.91213603 44.54320873 6.5 44.9375 C3.26964172 45.14083904 0.04863524 45.21285996 -3.1875 45.25 C-4.04150391 45.27900391 -4.89550781 45.30800781 -5.77539062 45.33789062 C-11.98359581 45.40128942 -11.98359581 45.40128942 -14.5703125 43.078125 C-15.5 40.9375 -15.5 40.9375 -15.6875 38.375 C-14.5 35.9375 -14.5 35.9375 -12.6340332 35.04321289 C-11.54094849 34.66797485 -11.54094849 34.66797485 -10.42578125 34.28515625 C-9.69399658 34.02871338 -8.96221191 33.77227051 -8.20825195 33.50805664 C-7.64452881 33.31977295 -7.08080566 33.13148926 -6.5 32.9375 C-6.48541748 32.04442139 -6.47083496 31.15134277 -6.45581055 30.23120117 C-6.39472923 26.91532722 -6.32057522 23.60028101 -6.23754883 20.28491211 C-6.20430999 18.85045372 -6.17627465 17.41586487 -6.15356445 15.98120117 C-6.11999729 13.91789193 -6.06768587 11.85577697 -6.01171875 9.79296875 C-5.98553467 8.55184326 -5.95935059 7.31071777 -5.93237305 6.03198242 C-5.5 2.9375 -5.5 2.9375 -4.12426758 1.00512695 C-2.5 -0.0625 -2.5 -0.0625 0 0 Z " fill="#F8F8F8" transform="translate(110.5,164.0625)"/>
<path d="M0 0 C0.85400391 0.04447266 1.70800781 0.08894531 2.58789062 0.13476562 C8.89817629 0.53628419 8.89817629 0.53628419 12.3125 2.8125 C13.35833942 5.22597559 13.40635848 6.4474948 12.75 9 C10.6083353 11.70035984 8.70855541 11.41610296 5.3125 11.8125 C2.2694878 12.01400768 -0.76345559 12.08769522 -3.8125 12.125 C-4.61042969 12.15400391 -5.40835938 12.18300781 -6.23046875 12.21289062 C-12.05252839 12.27606823 -12.05252839 12.27606823 -15.234375 9.953125 C-16.6875 7.8125 -16.6875 7.8125 -16.8125 5.25 C-13.72337291 -1.4431087 -6.21874135 -0.47104468 0 0 Z " fill="#F8F8F8" transform="translate(111.6875,135.1875)"/>
</svg>
