<svg xmlns="http://www.w3.org/2000/svg" xmlns:xlink="http://www.w3.org/1999/xlink" width="1000" height="1000" viewBox="0 0 375 375" preserveAspectRatio="xMidYMid meet" version="1.0"><defs><clipPath id="08e8f779d5"><path d="M 46.273438 15 L 328.726562 15 L 328.726562 297.457031 L 46.273438 297.457031 Z M 46.273438 15 " clip-rule="nonzero"/></clipPath><clipPath id="2bf716c377"><path d="M 187.5 15 C 109.503906 15 46.273438 78.230469 46.273438 156.226562 C 46.273438 234.226562 109.503906 297.457031 187.5 297.457031 C 265.496094 297.457031 328.726562 234.226562 328.726562 156.226562 C 328.726562 78.230469 265.496094 15 187.5 15 Z M 187.5 15 " clip-rule="nonzero"/></clipPath><clipPath id="536ecebe52"><path d="M 46.273438 15 L 328.601562 15 L 328.601562 297.332031 L 46.273438 297.332031 Z M 46.273438 15 " clip-rule="nonzero"/></clipPath><clipPath id="90100b2451"><path d="M 187.4375 15 C 109.472656 15 46.273438 78.203125 46.273438 156.164062 C 46.273438 234.128906 109.472656 297.332031 187.4375 297.332031 C 265.402344 297.332031 328.601562 234.128906 328.601562 156.164062 C 328.601562 78.203125 265.402344 15 187.4375 15 Z M 187.4375 15 " clip-rule="nonzero"/></clipPath><clipPath id="fe88a075d5"><path d="M 41 260 L 334 260 L 334 338 L 41 338 Z M 41 260 " clip-rule="nonzero"/></clipPath><clipPath id="331bd2f79f"><path d="M 337.40625 271.265625 L 189.484375 419.191406 L 41.5625 271.265625 L 189.484375 123.34375 Z M 337.40625 271.265625 " clip-rule="nonzero"/></clipPath><clipPath id="91228365b3"><path d="M 337.40625 271.265625 L 189.484375 419.191406 L 41.5625 271.265625 L 189.484375 123.34375 Z M 337.40625 271.265625 " clip-rule="nonzero"/></clipPath></defs><rect x="-37.5" width="450" fill="none" y="-37.499999" height="449.999989" fill-opacity="1"/><rect x="-37.5" width="450" fill="none" y="-37.499999" height="449.999989" fill-opacity="1"/><g clip-path="url(#08e8f779d5)"><g clip-path="url(#2bf716c377)"><path fill="none" d="M 46.273438 15 L 328.726562 15 L 328.726562 297.457031 L 46.273438 297.457031 Z M 46.273438 15 " fill-opacity="1" fill-rule="nonzero"/></g></g><g clip-path="url(#536ecebe52)"><g clip-path="url(#90100b2451)"><path stroke-linecap="butt" transform="matrix(13.07466, 0, 0, 13.07466, 46.27234, 14.999999)" fill="none" stroke-linejoin="miter" d="M 10.796851 0.0000000753366 C 4.833802 0.0000000753366 0.0000839516 4.834017 0.0000839516 10.796768 C 0.0000839516 16.759817 4.833802 21.593834 10.796851 21.593834 C 16.759901 21.593834 21.593619 16.759817 21.593619 10.796768 C 21.593619 4.834017 16.759901 0.0000000753366 10.796851 0.0000000753366 Z M 10.796851 0.0000000753366 " stroke="#f89700" stroke-width="3.327046" stroke-opacity="1" stroke-miterlimit="4"/></g></g><g clip-path="url(#fe88a075d5)"><g clip-path="url(#331bd2f79f)"><g clip-path="url(#91228365b3)"><path fill="#f89700" d="M 44.980469 263.804688 C 49.101562 259.683594 55.789062 259.683594 59.910156 263.804688 C 130.238281 334.132812 244.683594 334.132812 315.011719 263.804688 C 319.132812 259.683594 325.820312 259.683594 329.941406 263.804688 C 334.0625 267.921875 334.0625 274.613281 329.941406 278.730469 C 310.714844 297.960938 288.289062 312.859375 263.285156 322.996094 C 239.128906 332.789062 213.632812 337.746094 187.476562 337.746094 C 161.320312 337.746094 135.808594 332.773438 111.667969 322.996094 C 86.660156 312.859375 64.238281 297.960938 45.011719 278.730469 C 40.859375 274.613281 40.859375 267.921875 44.980469 263.804688 Z M 44.980469 263.804688 " fill-opacity="1" fill-rule="nonzero"/></g></g></g></svg>