<svg xmlns="http://www.w3.org/2000/svg" xmlns:xlink="http://www.w3.org/1999/xlink" width="500" zoomAndPan="magnify" viewBox="0 0 375 374.999991" height="500" preserveAspectRatio="xMidYMid meet" version="1.0">
    <defs>
        <clipPath id="33a5178138">
            <path d="M 180.148438 109.632812 L 196.351562 109.632812 L 196.351562 125.835938 L 180.148438 125.835938 Z M 180.148438 109.632812 " clip-rule="nonzero"/>
        </clipPath>
        <clipPath id="c73b0455b6">
            <path d="M 188.25 109.632812 C 183.777344 109.632812 180.148438 113.261719 180.148438 117.734375 C 180.148438 122.207031 183.777344 125.835938 188.25 125.835938 C 192.722656 125.835938 196.351562 122.207031 196.351562 117.734375 C 196.351562 113.261719 192.722656 109.632812 188.25 109.632812 Z M 188.25 109.632812 " clip-rule="nonzero"/>
        </clipPath>
        <clipPath id="99148a4035">
            <path d="M 180.148438 109.632812 L 196.34375 109.632812 L 196.34375 125.828125 L 180.148438 125.828125 Z M 180.148438 109.632812 " clip-rule="nonzero"/>
        </clipPath>
        <clipPath id="7bd8413e52">
            <path d="M 188.246094 109.632812 C 183.773438 109.632812 180.148438 113.257812 180.148438 117.730469 C 180.148438 122.203125 183.773438 125.828125 188.246094 125.828125 C 192.71875 125.828125 196.34375 122.203125 196.34375 117.730469 C 196.34375 113.257812 192.71875 109.632812 188.246094 109.632812 Z M 188.246094 109.632812 " clip-rule="nonzero"/>
        </clipPath>
        <clipPath id="7379235e44">
            <path d="M 180.148438 232.902344 L 196.351562 232.902344 L 196.351562 249.101562 L 180.148438 249.101562 Z M 180.148438 232.902344 " clip-rule="nonzero"/>
        </clipPath>
        <clipPath id="5a59df760e">
            <path d="M 188.25 232.902344 C 183.777344 232.902344 180.148438 236.527344 180.148438 241 C 180.148438 245.476562 183.777344 249.101562 188.25 249.101562 C 192.722656 249.101562 196.351562 245.476562 196.351562 241 C 196.351562 236.527344 192.722656 232.902344 188.25 232.902344 Z M 188.25 232.902344 " clip-rule="nonzero"/>
        </clipPath>
        <clipPath id="3e3d445275">
            <path d="M 180.148438 232.902344 L 196.34375 232.902344 L 196.34375 249.097656 L 180.148438 249.097656 Z M 180.148438 232.902344 " clip-rule="nonzero"/>
        </clipPath>
        <clipPath id="efc556c3d6">
            <path d="M 188.246094 232.902344 C 183.773438 232.902344 180.148438 236.527344 180.148438 241 C 180.148438 245.46875 183.773438 249.097656 188.246094 249.097656 C 192.71875 249.097656 196.34375 245.46875 196.34375 241 C 196.34375 236.527344 192.71875 232.902344 188.246094 232.902344 Z M 188.246094 232.902344 " clip-rule="nonzero"/>
        </clipPath>
        <clipPath id="81dee5667a">
            <path d="M 180.148438 191.542969 L 196.351562 191.542969 L 196.351562 207.746094 L 180.148438 207.746094 Z M 180.148438 191.542969 " clip-rule="nonzero"/>
        </clipPath>
        <clipPath id="d5921b40f8">
            <path d="M 188.25 191.542969 C 183.777344 191.542969 180.148438 195.167969 180.148438 199.644531 C 180.148438 204.117188 183.777344 207.746094 188.25 207.746094 C 192.722656 207.746094 196.351562 204.117188 196.351562 199.644531 C 196.351562 195.167969 192.722656 191.542969 188.25 191.542969 Z M 188.25 191.542969 " clip-rule="nonzero"/>
        </clipPath>
        <clipPath id="17811c75ae">
            <path d="M 180.148438 191.542969 L 196.34375 191.542969 L 196.34375 207.738281 L 180.148438 207.738281 Z M 180.148438 191.542969 " clip-rule="nonzero"/>
        </clipPath>
        <clipPath id="f9099f94b6">
            <path d="M 188.246094 191.542969 C 183.773438 191.542969 180.148438 195.167969 180.148438 199.640625 C 180.148438 204.113281 183.773438 207.738281 188.246094 207.738281 C 192.71875 207.738281 196.34375 204.113281 196.34375 199.640625 C 196.34375 195.167969 192.71875 191.542969 188.246094 191.542969 Z M 188.246094 191.542969 " clip-rule="nonzero"/>
        </clipPath>
        <clipPath id="21eaec4182">
            <path d="M 180.148438 150.183594 L 196.351562 150.183594 L 196.351562 166.386719 L 180.148438 166.386719 Z M 180.148438 150.183594 " clip-rule="nonzero"/>
        </clipPath>
        <clipPath id="c4082f9d76">
            <path d="M 188.25 150.183594 C 183.777344 150.183594 180.148438 153.808594 180.148438 158.285156 C 180.148438 162.757812 183.777344 166.386719 188.25 166.386719 C 192.722656 166.386719 196.351562 162.757812 196.351562 158.285156 C 196.351562 153.808594 192.722656 150.183594 188.25 150.183594 Z M 188.25 150.183594 " clip-rule="nonzero"/>
        </clipPath>
        <clipPath id="839e21d5a8">
            <path d="M 180.148438 150.183594 L 196.34375 150.183594 L 196.34375 166.378906 L 180.148438 166.378906 Z M 180.148438 150.183594 " clip-rule="nonzero"/>
        </clipPath>
        <clipPath id="81a8ee4f1f">
            <path d="M 188.246094 150.183594 C 183.773438 150.183594 180.148438 153.808594 180.148438 158.28125 C 180.148438 162.753906 183.773438 166.378906 188.246094 166.378906 C 192.71875 166.378906 196.34375 162.753906 196.34375 158.28125 C 196.34375 153.808594 192.71875 150.183594 188.246094 150.183594 Z M 188.246094 150.183594 " clip-rule="nonzero"/>
        </clipPath>
    </defs>
        <path stroke-linecap="butt" transform="matrix(0, 0.75, -0.75, 0, 189.748732, 100.880794)" fill="none" stroke-linejoin="miter" d="M -0.00251723 1.99831 L 207.89333 1.99831 " stroke="#f89700" stroke-width="4" stroke-opacity="1" stroke-miterlimit="4"/>
            <g clip-path="url(#33a5178138)">
            <g clip-path="url(#c73b0455b6)">
                <path fill="#ffffff" d="M 180.148438 109.632812 L 196.351562 109.632812 L 196.351562 125.835938 L 180.148438 125.835938 Z M 180.148438 109.632812 " fill-opacity="1" fill-rule="nonzero"/>
            </g>
            </g>

            <g clip-path="url(#99148a4035)">
            <g clip-path="url(#7bd8413e52)">
                <path stroke-linecap="butt" transform="matrix(0.75, 0, 0, 0.75, 180.148761, 109.633236)" fill="none" stroke-linejoin="miter" d="M 10.796444 -0.000564668 C 4.832902 -0.000564668 -0.00043196 4.832769 -0.00043196 10.796311 C -0.00043196 16.759853 4.832902 21.593187 10.796444 21.593187 C 16.759986 21.593187 21.593319 16.759853 21.593319 10.796311 C 21.593319 4.832769 16.759986 -0.000564668 10.796444 -0.000564668 Z M 10.796444 -0.000564668 " stroke="#f89700" stroke-width="8" stroke-opacity="1" stroke-miterlimit="4"/>
            </g>
            </g>

            <g clip-path="url(#7379235e44)">
            <g clip-path="url(#5a59df760e)">
                <path fill="#ffffff" d="M 180.148438 232.902344 L 196.351562 232.902344 L 196.351562 249.101562 L 180.148438 249.101562 Z M 180.148438 232.902344 " fill-opacity="1" fill-rule="nonzero"/>
            </g>
            </g>

            <g clip-path="url(#3e3d445275)">
            <g clip-path="url(#efc556c3d6)">
                <path stroke-linecap="butt" transform="matrix(0.75, 0, 0, 0.75, 180.148761, 232.900619)" fill="none" stroke-linejoin="miter" d="M 10.796444 0.00229953 C 4.832902 0.00229953 -0.00043196 4.835633 -0.00043196 10.799175 C -0.00043196 16.757509 4.832902 21.596051 10.796444 21.596051 C 16.759986 21.596051 21.593319 16.757509 21.593319 10.799175 C 21.593319 4.835633 16.759986 0.00229953 10.796444 0.00229953 Z M 10.796444 0.00229953 " stroke="#f89700" stroke-width="8" stroke-opacity="1" stroke-miterlimit="4"/>
            </g>
            </g>

            <g clip-path="url(#81dee5667a)">
            <g clip-path="url(#d5921b40f8)">
                <path fill="#ffffff" d="M 180.148438 191.542969 L 196.351562 191.542969 L 196.351562 207.746094 L 180.148438 207.746094 Z M 180.148438 191.542969 " fill-opacity="1" fill-rule="nonzero"/>
            </g>
            </g>

            <g clip-path="url(#17811c75ae)">
            <g clip-path="url(#f9099f94b6)">
                <path stroke-linecap="butt" transform="matrix(0.75, 0, 0, 0.75, 180.148761, 191.542034)" fill="none" stroke-linejoin="miter" d="M 10.796444 0.00124657 C 4.832902 0.00124657 -0.00043196 4.83458 -0.00043196 10.798122 C -0.00043196 16.761664 4.832902 21.594998 10.796444 21.594998 C 16.759986 21.594998 21.593319 16.761664 21.593319 10.798122 C 21.593319 4.83458 16.759986 0.00124657 10.796444 0.00124657 Z M 10.796444 0.00124657 " stroke="#f89700" stroke-width="8" stroke-opacity="1" stroke-miterlimit="4"/>
            </g>
            </g>

            <g clip-path="url(#21eaec4182)">
            <g clip-path="url(#c4082f9d76)">
                <path fill="#ffffff" d="M 180.148438 150.183594 L 196.351562 150.183594 L 196.351562 166.386719 L 180.148438 166.386719 Z M 180.148438 150.183594 " fill-opacity="1" fill-rule="nonzero"/>
            </g>
            </g>

            <g clip-path="url(#839e21d5a8)">
            <g clip-path="url(#81a8ee4f1f)">
                <path stroke-linecap="butt" transform="matrix(0.75, 0, 0, 0.75, 180.148761, 150.183432)" fill="none" stroke-linejoin="miter" d="M 10.796444 0.000216016 C 4.832902 0.000216016 -0.00043196 4.83355 -0.00043196 10.797092 C -0.00043196 16.760634 4.832902 21.593967 10.796444 21.593967 C 16.759986 21.593967 21.593319 16.760634 21.593319 10.797092 C 21.593319 4.83355 16.759986 0.000216016 10.796444 0.000216016 Z M 10.796444 0.000216016 " stroke="#f89700" stroke-width="8" stroke-opacity="1" stroke-miterlimit="4"/>
            </g>
            </g>
</svg>                         
